<svg width="24" height="24" viewBox="0 0 24 24" fill="none" xmlns="http://www.w3.org/2000/svg">
<path d="M12 24C5.375 24 0 18.625 0 12C0 5.375 5.375 0 12 0C18.625 0 24 5.375 24 12C24 18.625 18.625 24 12 24Z" fill="black"/>
<path d="M12.0002 17.7527C8.82411 17.7527 6.24731 15.176 6.24731 11.9999C6.24731 8.82386 8.82411 6.24707 12.0002 6.24707C15.1762 6.24707 17.753 8.82386 17.753 11.9999C17.753 15.176 15.1762 17.7527 12.0002 17.7527ZM12.0002 17.0187C14.7717 17.0187 17.0189 14.7715 17.0189 11.9999C17.0189 9.22836 14.7717 6.98116 12.0002 6.98116C9.2286 6.98116 6.9814 9.22836 6.9814 11.9999C6.9814 14.7715 9.2286 17.0187 12.0002 17.0187ZM12.0002 13.1535C11.356 13.1535 10.8466 12.6291 10.8466 11.9999C10.8466 11.3557 11.356 10.8463 12.0002 10.8463C12.6294 10.8463 13.1537 11.3557 13.1537 11.9999C13.1537 12.6291 12.6294 13.1535 12.0002 13.1535Z" fill="white"/>
</svg>